<?xml version="1.0" encoding="UTF-8" standalone="no"?>
<!-- Created with Inkscape (http://www.inkscape.org/) -->

<svg
   xmlns:dc="http://purl.org/dc/elements/1.1/"
   xmlns:cc="http://creativecommons.org/ns#"
   xmlns:rdf="http://www.w3.org/1999/02/22-rdf-syntax-ns#"
   xmlns:svg="http://www.w3.org/2000/svg"
   xmlns="http://www.w3.org/2000/svg"
   xmlns:sodipodi="http://sodipodi.sourceforge.net/DTD/sodipodi-0.dtd"
   xmlns:inkscape="http://www.inkscape.org/namespaces/inkscape"
   width="744.09448819"
   height="1052.3622047"
   id="svg2"
   version="1.1"
   inkscape:version="0.48.1 r9760"
   sodipodi:docname="hammer.svg"
   inkscape:export-filename="/home/matthias/hammer.png"
   inkscape:export-xdpi="90"
   inkscape:export-ydpi="90">
  <defs
     id="defs4">
    <inkscape:path-effect
       effect="skeletal"
       id="path-effect4192"
       is_visible="true"
       pattern="M 0,5 C 0,2.24 2.24,0 5,0 7.76,0 10,2.24 10,5 10,7.76 7.76,10 5,10 2.24,10 0,7.76 0,5 z"
       copytype="single_stretched"
       prop_scale="1"
       scale_y_rel="false"
       spacing="0"
       normal_offset="0"
       tang_offset="0"
       prop_units="false"
       vertical_pattern="false"
       fuse_tolerance="0" />
    <inkscape:path-effect
       effect="spiro"
       id="path-effect4190"
       is_visible="true" />
    <inkscape:path-effect
       effect="skeletal"
       id="path-effect4186"
       is_visible="true"
       pattern="M 0,5 C 0,2.24 2.24,0 5,0 7.76,0 10,2.24 10,5 10,7.76 7.76,10 5,10 2.24,10 0,7.76 0,5 z"
       copytype="single_stretched"
       prop_scale="1"
       scale_y_rel="false"
       spacing="0"
       normal_offset="0"
       tang_offset="0"
       prop_units="false"
       vertical_pattern="false"
       fuse_tolerance="0" />
    <inkscape:path-effect
       effect="spiro"
       id="path-effect4184"
       is_visible="true" />
    <inkscape:path-effect
       effect="skeletal"
       id="path-effect4180"
       is_visible="true"
       pattern="M 0,5 C 0,2.24 2.24,0 5,0 7.76,0 10,2.24 10,5 10,7.76 7.76,10 5,10 2.24,10 0,7.76 0,5 z"
       copytype="single_stretched"
       prop_scale="1"
       scale_y_rel="false"
       spacing="0"
       normal_offset="0"
       tang_offset="0"
       prop_units="false"
       vertical_pattern="false"
       fuse_tolerance="0" />
    <inkscape:path-effect
       effect="spiro"
       id="path-effect4178"
       is_visible="true" />
    <inkscape:path-effect
       effect="skeletal"
       id="path-effect4162"
       is_visible="true"
       pattern="M 0,5 C 0,2.24 2.24,0 5,0 7.76,0 10,2.24 10,5 10,7.76 7.76,10 5,10 2.24,10 0,7.76 0,5 z"
       copytype="single_stretched"
       prop_scale="1"
       scale_y_rel="false"
       spacing="0"
       normal_offset="0"
       tang_offset="0"
       prop_units="false"
       vertical_pattern="false"
       fuse_tolerance="0" />
    <inkscape:path-effect
       effect="spiro"
       id="path-effect4160"
       is_visible="true" />
    <inkscape:path-effect
       effect="skeletal"
       id="path-effect4156"
       is_visible="true"
       pattern="M 0,5 C 0,2.24 2.24,0 5,0 7.76,0 10,2.24 10,5 10,7.76 7.76,10 5,10 2.24,10 0,7.76 0,5 z"
       copytype="single_stretched"
       prop_scale="1"
       scale_y_rel="false"
       spacing="0"
       normal_offset="0"
       tang_offset="0"
       prop_units="false"
       vertical_pattern="false"
       fuse_tolerance="0" />
    <inkscape:path-effect
       effect="spiro"
       id="path-effect4154"
       is_visible="true" />
    <inkscape:path-effect
       effect="skeletal"
       id="path-effect4150"
       is_visible="true"
       pattern="M 0,5 C 0,2.24 2.24,0 5,0 7.76,0 10,2.24 10,5 10,7.76 7.76,10 5,10 2.24,10 0,7.76 0,5 z"
       copytype="single_stretched"
       prop_scale="1"
       scale_y_rel="false"
       spacing="0"
       normal_offset="0"
       tang_offset="0"
       prop_units="false"
       vertical_pattern="false"
       fuse_tolerance="0" />
    <inkscape:path-effect
       effect="spiro"
       id="path-effect4148"
       is_visible="true" />
    <inkscape:path-effect
       effect="skeletal"
       id="path-effect4144"
       is_visible="true"
       pattern="M 0,5 C 0,2.24 2.24,0 5,0 7.76,0 10,2.24 10,5 10,7.76 7.76,10 5,10 2.24,10 0,7.76 0,5 z"
       copytype="single_stretched"
       prop_scale="1"
       scale_y_rel="false"
       spacing="0"
       normal_offset="0"
       tang_offset="0"
       prop_units="false"
       vertical_pattern="false"
       fuse_tolerance="0" />
    <inkscape:path-effect
       effect="spiro"
       id="path-effect4142"
       is_visible="true" />
    <inkscape:path-effect
       effect="skeletal"
       id="path-effect4138"
       is_visible="true"
       pattern="M 0,5 C 0,2.24 2.24,0 5,0 7.76,0 10,2.24 10,5 10,7.76 7.76,10 5,10 2.24,10 0,7.76 0,5 z"
       copytype="single_stretched"
       prop_scale="1"
       scale_y_rel="false"
       spacing="0"
       normal_offset="0"
       tang_offset="0"
       prop_units="false"
       vertical_pattern="false"
       fuse_tolerance="0" />
    <inkscape:path-effect
       effect="spiro"
       id="path-effect4136"
       is_visible="true" />
    <inkscape:path-effect
       effect="skeletal"
       id="path-effect4132"
       is_visible="true"
       pattern="M 0,5 C 0,2.24 2.24,0 5,0 7.76,0 10,2.24 10,5 10,7.76 7.76,10 5,10 2.24,10 0,7.76 0,5 z"
       copytype="single_stretched"
       prop_scale="1"
       scale_y_rel="false"
       spacing="0"
       normal_offset="0"
       tang_offset="0"
       prop_units="false"
       vertical_pattern="false"
       fuse_tolerance="0" />
    <inkscape:path-effect
       effect="spiro"
       id="path-effect4130"
       is_visible="true" />
    <inkscape:path-effect
       effect="skeletal"
       id="path-effect4126"
       is_visible="true"
       pattern="M 0,5 C 0,2.24 2.24,0 5,0 7.76,0 10,2.24 10,5 10,7.76 7.76,10 5,10 2.24,10 0,7.76 0,5 z"
       copytype="single_stretched"
       prop_scale="1"
       scale_y_rel="false"
       spacing="0"
       normal_offset="0"
       tang_offset="0"
       prop_units="false"
       vertical_pattern="false"
       fuse_tolerance="0" />
    <inkscape:path-effect
       effect="spiro"
       id="path-effect4124"
       is_visible="true" />
    <inkscape:path-effect
       effect="skeletal"
       id="path-effect4120"
       is_visible="true"
       pattern="M 0,5 C 0,2.24 2.24,0 5,0 7.76,0 10,2.24 10,5 10,7.76 7.76,10 5,10 2.24,10 0,7.76 0,5 z"
       copytype="single_stretched"
       prop_scale="1"
       scale_y_rel="false"
       spacing="0"
       normal_offset="0"
       tang_offset="0"
       prop_units="false"
       vertical_pattern="false"
       fuse_tolerance="0" />
    <inkscape:path-effect
       effect="spiro"
       id="path-effect4118"
       is_visible="true" />
    <inkscape:path-effect
       effect="skeletal"
       id="path-effect4114"
       is_visible="true"
       pattern="M 0,5 C 0,2.24 2.24,0 5,0 7.76,0 10,2.24 10,5 10,7.76 7.76,10 5,10 2.24,10 0,7.76 0,5 z"
       copytype="single_stretched"
       prop_scale="1"
       scale_y_rel="false"
       spacing="0"
       normal_offset="0"
       tang_offset="0"
       prop_units="false"
       vertical_pattern="false"
       fuse_tolerance="0" />
    <inkscape:path-effect
       effect="spiro"
       id="path-effect4112"
       is_visible="true" />
    <inkscape:path-effect
       effect="skeletal"
       id="path-effect4108"
       is_visible="true"
       pattern="M 0,5 C 0,2.24 2.24,0 5,0 7.76,0 10,2.24 10,5 10,7.76 7.76,10 5,10 2.24,10 0,7.76 0,5 z"
       copytype="single_stretched"
       prop_scale="1"
       scale_y_rel="false"
       spacing="0"
       normal_offset="0"
       tang_offset="0"
       prop_units="false"
       vertical_pattern="false"
       fuse_tolerance="0" />
    <inkscape:path-effect
       effect="spiro"
       id="path-effect4106"
       is_visible="true" />
    <inkscape:path-effect
       effect="skeletal"
       id="path-effect4102"
       is_visible="true"
       pattern="M 0,5 C 0,2.24 2.24,0 5,0 7.76,0 10,2.24 10,5 10,7.76 7.76,10 5,10 2.24,10 0,7.76 0,5 z"
       copytype="single_stretched"
       prop_scale="1"
       scale_y_rel="false"
       spacing="0"
       normal_offset="0"
       tang_offset="0"
       prop_units="false"
       vertical_pattern="false"
       fuse_tolerance="0" />
    <inkscape:path-effect
       effect="spiro"
       id="path-effect4100"
       is_visible="true" />
    <inkscape:perspective
       sodipodi:type="inkscape:persp3d"
       inkscape:vp_x="388.57778 : -388.57778 : 0"
       inkscape:vp_y="435.01701 : 1456.0027 : 1"
       inkscape:vp_z="290.84541 : 290.84541 : 0"
       inkscape:persp3d-origin="372.04724 : 350.78739 : 1"
       id="perspective3845" />
  </defs>
  <sodipodi:namedview
     id="base"
     pagecolor="#ffffff"
     bordercolor="#666666"
     borderopacity="1.0"
     inkscape:pageopacity="0.0"
     inkscape:pageshadow="2"
     inkscape:zoom="0.53118594"
     inkscape:cx="372.04724"
     inkscape:cy="526.18109"
     inkscape:document-units="px"
     inkscape:current-layer="layer1"
     showgrid="false"
     showguides="false"
     inkscape:guide-bbox="true"
     inkscape:window-width="1024"
     inkscape:window-height="739"
     inkscape:window-x="0"
     inkscape:window-y="0"
     inkscape:window-maximized="0">
    <sodipodi:guide
       orientation="0,1"
       position="1159.3491,-1.9452166"
       id="guide2987" />
    <sodipodi:guide
       orientation="0,1"
       position="990.11525,169.23384"
       id="guide2989" />
    <sodipodi:guide
       orientation="0,1"
       position="863.67617,243.15208"
       id="guide2991" />
    <sodipodi:guide
       orientation="1,0"
       position="227.59034,169.23384"
       id="guide2995" />
    <sodipodi:guide
       orientation="1,0"
       position="424.05722,169.23384"
       id="guide2997" />
    <sodipodi:guide
       orientation="1,0"
       position="287.89206,99.206047"
       id="guide2999" />
    <sodipodi:guide
       orientation="1,0"
       position="361.81029,169.23384"
       id="guide3003" />
    <sodipodi:guide
       orientation="0,1"
       position="361.81029,599.12671"
       id="guide3005" />
    <sodipodi:guide
       orientation="0,1"
       position="361.81029,406.55027"
       id="guide3013" />
    <sodipodi:guide
       orientation="1,0"
       position="361.81029,406.55027"
       id="guide3015" />
    <sodipodi:guide
       orientation="1,0"
       position="259.84554,406.55027"
       id="guide3019" />
    <sodipodi:guide
       orientation="1,0"
       position="390.2986,406.55027"
       id="guide3021" />
    <sodipodi:guide
       orientation="1,0"
       position="325.77531,766.97207"
       id="guide3075" />
    <sodipodi:guide
       orientation="0,1"
       position="336.47513,781.08672"
       id="guide4027" />
    <inkscape:grid
       type="xygrid"
       id="grid4084" />
    <sodipodi:guide
       orientation="1,0"
       position="652.07089,116.57849"
       id="guide4925" />
  </sodipodi:namedview>
  <metadata
     id="metadata7">
    <rdf:RDF>
      <cc:Work
         rdf:about="">
        <dc:format>image/svg+xml</dc:format>
        <dc:type
           rdf:resource="http://purl.org/dc/dcmitype/StillImage" />
        <dc:title></dc:title>
      </cc:Work>
    </rdf:RDF>
  </metadata>
  <g
     inkscape:label="Layer 1"
     inkscape:groupmode="layer"
     id="layer1">
    <rect
       style="fill:#a06851;fill-opacity:1;stroke:#72492e;stroke-width:5;stroke-miterlimit:4;stroke-opacity:1;stroke-dasharray:none"
       id="rect4080-3"
       width="84.141747"
       height="440"
       x="619.81171"
       y="277.48062" />
    <rect
       style="fill:#a06851;fill-opacity:1;stroke:#72492e;stroke-width:5;stroke-miterlimit:4;stroke-opacity:1;stroke-dasharray:none"
       id="rect4080"
       width="84.141747"
       height="440"
       x="619.81171"
       y="474.13596" />
    <rect
       style="fill:#bfa03c;fill-opacity:1;stroke:#72492e;stroke-width:3;stroke-miterlimit:4;stroke-opacity:1;stroke-dasharray:none"
       id="rect4086"
       width="84.141907"
       height="15.873494"
       x="619.81152"
       y="694.68317" />
    <path
       sodipodi:type="arc"
       style="fill:#a08751;fill-opacity:1;stroke:#72492e;stroke-width:4.61538458;stroke-linejoin:round;stroke-miterlimit:4;stroke-opacity:1;stroke-dasharray:none;stroke-dashoffset:0"
       id="path4090"
       sodipodi:cx="660"
       sodipodi:cy="452.36218"
       sodipodi:rx="119.99998"
       sodipodi:ry="119.99998"
       d="m 779.99998,452.36218 a 119.99998,119.99998 0 1 1 -239.99996,0 119.99998,119.99998 0 1 1 239.99996,0 z"
       transform="matrix(1.1602942,0,0,1.1602942,-103.91156,-92.158761)" />
    <path
       style="fill:#6e6259;fill-rule:evenodd;stroke:none;fill-opacity:1"
       d="m 361.07039,573.77572 c -0.5063,-0.44824 0.44,-2.50625 2.65184,-5.82074 2.21184,-3.31449 5.69398,-7.88222 10.3007,-13.28444 4.60672,-5.40221 10.34154,-11.63604 17.03717,-18.2624 6.69563,-6.62637 14.35402,-13.6426 22.74498,-20.63063 1e-5,0 1e-5,0 1e-5,0 0.68418,-0.56993 1.37331,-1.13977 2.06726,-1.70926 6.46199,-5.303 12.892,-10.19967 19.10579,-14.58655 6.2138,-4.38688 12.21075,-8.26394 17.78121,-11.57968 9.40102,-5.59442 17.55882,-9.58283 23.42173,-11.99963 5.86291,-2.4168 9.42248,-3.28815 9.81892,-2.51764 0.39644,0.77051 -2.40878,3.08864 -7.51091,6.70935 -5.10213,3.62071 -12.49202,8.56893 -21.18732,14.77426 -5.15309,3.67658 -10.76478,7.7997 -16.66465,12.31436 -5.89987,4.51465 -12.08796,9.4211 -18.42129,14.61672 -0.68014,0.55795 -1.35686,1.115 -2.03004,1.67091 0,10e-6 0,10e-6 0,10e-6 -8.25435,6.81814 -15.96226,13.46542 -22.89253,19.59568 -6.93027,6.13026 -13.08475,11.74139 -18.27093,16.44777 -5.18618,4.70638 -9.40734,8.50537 -12.47107,11.00719 -3.06373,2.50181 -4.97457,3.70296 -5.48087,3.25472 z"
       id="path4098"
       inkscape:path-effect="#path-effect4100;#path-effect4102"
       inkscape:original-d="m 361.07039,573.77572 c 9.26852,-23.75329 35.69024,-40.08039 55.92505,-54.15179 13.11591,-9.1209 24.21338,-19.90859 38.03512,-28.23874 9.00828,-5.42916 25.08677,-11.71825 30.96944,-18.00044"
       inkscape:connector-curvature="0" />
    <path
       style="fill:#6e6259;fill-rule:evenodd;stroke:none;fill-opacity:1"
       d="m 361.07039,548.67798 c -0.0365,0.16221 -0.26722,0.2986 -0.72341,0.2856 -0.45619,-0.013 -1.15695,-0.18088 -1.87852,-0.81203 -0.60964,-0.5367 -1.20793,-1.40529 -1.36643,-2.62482 -0.11916,-0.94769 0.0437,-2.05427 0.69692,-3.09593 0.56042,-0.88429 1.44193,-1.65915 2.63016,-2.06891 1.05803,-0.35866 2.27906,-0.39979 3.49406,0.0322 1.1051,0.39996 2.11477,1.16121 2.8152,2.28303 0.64283,1.04321 0.96448,2.30602 0.81421,3.65218 -0.14863,1.26101 -0.69835,2.48136 -1.67181,3.46665 -1.37232,1.35151 -3.3198,2.04892 -5.43622,1.66608 -1.6147,-0.33674 -3.04464,-1.22131 -4.02116,-2.57334 -0.91,-1.27388 -1.41152,-2.77203 -1.41151,-4.3222 0.002,-1.46809 0.35956,-2.88959 1.04338,-4.1385 0.65172,-1.19255 1.50649,-2.22531 2.49846,-3.0498 1.89511,-1.52923 4.00565,-2.494 5.96193,-3.08717 1.81724,-0.60979 3.4729,-1.01872 4.72151,-1.62485 1.83191,-0.8244 3.55023,-2.25601 5.01113,-4.03584 1.37748,-1.68318 2.48081,-3.77056 3.3787,-6.08679 0.84847,-2.15554 1.44296,-4.53767 1.93969,-7.11649 0.49674,-2.57882 0.89586,-5.3544 1.4035,-8.27682 2.1615,-12.93004 5.90684,-26.75703 11.55544,-40.50352 4.93922,-12.02013 10.95621,-23.06119 17.50059,-32.76777 6.54438,-9.70658 13.60993,-18.07839 20.54253,-25.01868 0,0 0,0 1e-5,0 2.2503,-2.27899 4.41536,-4.32141 6.30378,-6.30751 1.88843,-1.9861 3.50096,-3.91572 4.74847,-5.89654 0,0 0,0 0,-10e-6 1.46772,-2.30505 2.5104,-4.61961 3.00322,-6.84382 0.57734,-2.61588 0.50568,-5.12275 -0.10498,-7.18011 -0.63814,-2.22231 -1.84671,-4.02099 -3.07274,-5.32218 -1.41479,-1.50432 -2.86918,-2.40351 -3.87665,-3.02442 -1.00747,-0.62091 -1.59381,-0.99171 -1.54169,-1.29195 0.0521,-0.30024 0.74902,-0.52566 2.07773,-0.41137 0.66435,0.0571 1.4841,0.20715 2.42437,0.52103 0.94028,0.31388 2.00228,0.79236 3.10849,1.52008 1.91452,1.26145 3.96817,3.28123 5.36613,6.24911 1.27781,2.75649 1.93029,6.20253 1.51354,9.87203 -0.34795,3.09173 -1.35527,6.29188 -2.95946,9.32723 0,10e-6 -1e-5,10e-6 -1e-5,10e-6 -1.37622,2.58044 -3.09295,5.04981 -5.00321,7.42781 -1.91026,2.378 -4.01449,4.66399 -6.05958,6.94458 0,0 0,1e-5 0,1e-5 -6.20681,7.00727 -12.56497,15.24352 -18.52015,24.6372 -5.95518,9.39367 -11.50379,19.94437 -16.19313,31.36741 -5.36283,13.06362 -9.13725,26.13474 -11.60282,38.39322 -0.54071,2.78453 -1.06593,5.66001 -1.76434,8.52699 -0.6984,2.86698 -1.57007,5.72532 -2.75199,8.49056 -1.28571,2.97589 -3.01861,5.77216 -5.18697,8.17532 -2.31449,2.57107 -5.18649,4.56491 -8.33028,5.76867 -2.16905,0.78695 -4.05174,1.1322 -5.59064,1.49896 -1.60465,0.44297 -2.92035,0.80398 -3.74878,1.43587 -0.44167,0.31309 -0.81258,0.63848 -1.03996,0.97449 -0.23037,0.34068 -0.40505,0.69474 -0.43958,0.98575 -0.0385,0.28742 -0.0273,0.60251 0.0578,0.77395 0.0687,0.16614 0.2195,0.37441 0.31095,0.4212 0.0667,0.10791 0.42991,0.1015 0.57702,0.0354 0.13762,-0.0513 0.293,-0.22006 0.36701,-0.37328 0.0872,-0.1621 0.10347,-0.42705 0.0538,-0.62842 -0.0468,-0.22108 -0.22347,-0.47012 -0.42144,-0.61972 -0.21433,-0.17076 -0.55099,-0.26711 -0.84377,-0.25947 -0.33101,0.002 -0.70215,0.15632 -0.96601,0.37433 -0.31448,0.2524 -0.53981,0.65827 -0.62982,1.04432 -0.12099,0.49693 -0.0301,1.03741 0.13989,1.45352 0.19812,0.49283 0.51949,0.86117 0.7506,1.13231 0.23111,0.27114 0.38338,0.46288 0.34692,0.62509 z"
       id="path4104"
       inkscape:path-effect="#path-effect4106;#path-effect4108"
       inkscape:original-d="m 361.07039,548.67798 c 1.00221,-0.27177 2.73606,-1.82202 3.00662,-0.81533 0.27057,1.0067 -3.52165,1.72068 -3.00662,0.81533 2.59401,-4.55982 6.84749,-7.99135 9.62143,-12.44304 5.27144,-8.45976 10.13409,-19.37928 14.8833,-28.23874 16.88646,-31.5009 32.02293,-64.33247 47.95733,-96.3439 1.89032,-3.79756 17.48692,-25.10827 13.22961,-29.89983 -3.06945,-3.45464 -7.15593,-5.83913 -10.7339,-8.7587"
       inkscape:connector-curvature="0" />
    <path
       style="fill:#6e6259;fill-rule:evenodd;stroke:none;fill-opacity:1"
       d="m 186.16894,573.77572 c -0.16755,-0.0905 -0.22644,-0.36649 -0.22323,-0.80577 0.003,-0.43928 0.0672,-1.0442 0.10646,-1.80549 0.0392,-0.76129 0.0528,-1.68242 -0.0685,-2.72258 -0.12136,-1.04015 -0.37809,-2.20333 -0.89447,-3.36054 -0.36444,-0.85675 -0.88249,-1.72686 -1.55986,-2.60091 -0.67736,-0.87405 -1.51494,-1.7521 -2.47159,-2.62887 -1.57756,-1.42374 -3.58991,-2.7819 -5.8941,-4.41232 -6.08311,-4.2722 -13.05493,-9.64276 -20.58129,-15.89788 -7.52635,-6.25513 -15.60447,-13.39378 -24.09732,-20.96742 -4.35352,-3.87773 -8.82357,-7.87055 -13.40901,-11.89841 C 106.58861,497.46339 96.463215,488.99546 86.887301,481.83721 72.723338,471.23792 59.788092,463.38514 50.564245,457.9142 c -4.611924,-2.73547 -8.297712,-4.88544 -10.772774,-6.48841 -2.475061,-1.60297 -3.738375,-2.66354 -3.538067,-3.13879 0.200308,-0.47525 1.851776,-0.33128 4.733465,0.4276 2.88169,0.75889 6.992874,2.13726 12.056811,4.20796 5.063937,2.0707 11.079895,4.83768 17.725521,8.38645 6.645627,3.54876 13.919649,7.88229 21.468834,13.04652 10.199125,6.9844 20.801285,15.462 31.439645,24.80287 4.65145,4.08414 9.12359,8.1544 13.42113,12.12871 8.39245,7.75211 16.15112,15.13615 23.22513,21.73005 7.07401,6.59389 13.46487,12.4001 18.93008,17.23552 2.08289,1.82946 4.16197,3.70336 5.86858,5.73152 1.06137,1.24432 1.94831,2.572 2.62651,3.90825 0.6782,1.33626 1.14858,2.68104 1.42376,3.97356 0.36088,1.79051 0.30577,3.39627 0.0726,4.72959 -0.23321,1.33332 -0.64443,2.3982 -1.06788,3.19854 -0.42344,0.80035 -0.85921,1.33959 -1.21355,1.65698 -0.35434,0.31738 -0.6275,0.41513 -0.79505,0.3246 z"
       id="path4110"
       inkscape:path-effect="#path-effect4112;#path-effect4114"
       inkscape:original-d="m 186.16894,573.77572 c 0.32069,-3.10067 1.15834,-6.19092 0.96208,-9.30205 -0.13421,-2.12751 -8.36191,-9.66862 -9.9222,-11.62771 C 153.44739,523.01124 119.73542,500.82721 89.562668,478.09637 79.456437,470.48278 48.765267,444.19217 36.253404,448.287"
       inkscape:connector-curvature="0" />
    <path
       style="fill:#6e6259;fill-rule:evenodd;stroke:none;fill-opacity:1"
       d="m 186.16894,573.77572 c -0.33504,0.14921 -0.94351,-0.4463 -1.98348,-1.44021 -0.51998,-0.49696 -1.1555,-1.09044 -1.94218,-1.70619 -0.78668,-0.61575 -1.72613,-1.25488 -2.83398,-1.80539 -0.96821,-0.48272 -2.07399,-0.90114 -3.2952,-1.18031 -1.22121,-0.27916 -2.55886,-0.41928 -3.94102,-0.33149 -1.29677,0.0557 -2.66913,0.33857 -4.12574,0.81696 -1.45661,0.4784 -2.99768,1.15306 -4.62787,1.92627 -2.77068,1.36854 -5.81716,3.2109 -9.66707,4.78087 -2.46424,0.97345 -5.03369,1.72125 -7.63495,2.34141 -2.60126,0.62017 -5.23418,1.11261 -7.80832,1.63594 -6.53384,1.35226 -13.42068,3.16602 -20.5378,5.45691 -7.11712,2.29088 -14.46475,5.05832 -21.926253,8.22067 -4.817293,2.04168 -9.506768,4.17021 -14.046974,6.3249 -7.145471,3.42209 -13.726289,6.82471 -19.201496,10.84688 -1.508323,1.15232 -3.421887,2.59629 -5.93579,3.7424 -3.086981,1.30924 -6.409653,1.53004 -9.478215,0.79721 -3.232727,-0.78435 -5.988419,-2.57678 -7.970652,-4.9477 -2.105687,-2.53637 -3.212395,-5.57779 -3.378481,-8.58466 -0.169349,-3.26058 0.767726,-6.29527 2.382992,-8.71907 1.803187,-2.68787 4.335212,-4.48323 6.962797,-5.40281 3.048298,-1.05728 6.061698,-0.9051 8.532852,-0.0951 1.566035,0.51749 2.889553,1.28693 3.96768,2.15394 1.078128,0.86701 1.911913,1.83202 2.535454,2.78643 1e-6,0 2e-6,0 2e-6,0 0.71623,1.10065 1.145455,2.16944 1.396648,3.11042 0.251192,0.94097 0.325238,1.75594 0.311941,2.40778 -0.02659,1.30368 -0.362344,1.94541 -0.684509,1.96171 -0.322165,0.0163 -0.631197,-0.58148 -1.158746,-1.55648 -0.263774,-0.4875 -0.589186,-1.06933 -1.023708,-1.69391 -0.434523,-0.62459 -0.97932,-1.29362 -1.67134,-1.91375 0,0 -10e-7,0 -2e-6,-10e-6 -0.599283,-0.5398 -1.318387,-1.05045 -2.149311,-1.46654 -0.830924,-0.41609 -1.774665,-0.73814 -2.777011,-0.8755 -1.579129,-0.22269 -3.408328,0.004 -4.988157,0.82588 -1.36623,0.7019 -2.632713,1.89899 -3.373569,3.36221 -0.674413,1.31225 -0.975661,2.94851 -0.735248,4.46965 0.211899,1.40402 0.905525,2.84509 1.938208,3.88126 0.960158,0.97852 2.322728,1.70864 3.706278,1.9309 1.309833,0.2219 2.796906,0.0151 4.002357,-0.59566 1.063266,-0.45399 2.269315,-1.5875 3.986419,-2.90204 6.091767,-4.82444 13.171444,-8.80713 20.487343,-12.40854 4.632154,-2.30008 9.458516,-4.54192 14.456267,-6.65876 7.741017,-3.27877 15.457044,-6.06415 22.980514,-8.27535 7.52347,-2.2112 14.85362,-3.84766 21.81125,-4.92985 2.7358,-0.43481 5.31343,-0.7605 7.70626,-1.15552 2.39283,-0.39501 4.60103,-0.85935 6.61707,-1.51153 3.17656,-0.97952 6.35182,-2.53603 9.62999,-3.75036 1.91933,-0.74243 3.90185,-1.33182 5.86593,-1.68432 1.96408,-0.3525 3.90966,-0.46886 5.77224,-0.33004 2.00449,0.17684 3.81322,0.67881 5.38177,1.35234 1.56856,0.67353 2.89799,1.51866 3.99203,2.41392 1.24986,1.02491 2.18219,2.10355 2.8717,3.10201 0.68952,0.99845 1.13772,1.91796 1.42144,2.68554 0.56746,1.53515 0.51468,2.43749 0.17964,2.5867 z"
       id="path4116"
       inkscape:path-effect="#path-effect4118;#path-effect4120"
       inkscape:original-d="m 186.16894,573.77572 c -4.64041,-3.10067 -9.13072,-6.44093 -13.92122,-9.30205 -2.83007,-1.69025 -17.07629,5.45276 -19.84442,6.64441 -2.96898,1.27812 -12.26715,2.53385 -14.8833,3.3222 -19.45894,5.8638 -39.180278,11.58525 -57.879529,19.93322 -7.022394,3.13504 -13.189931,7.80814 -19.844419,11.62771 -1.725628,0.9905 -5.357232,5.27855 -4.961105,3.32222 0.811643,-4.00838 4.269582,-6.96665 6.404379,-10.44996"
       inkscape:connector-curvature="0" />
    <path
       style="fill:#6e6259;fill-rule:evenodd;stroke:none;fill-opacity:1"
       d="m 186.16894,573.77572 c 0.28382,0.0262 0.53868,0.35521 0.73527,0.98396 0.19658,0.62874 0.33399,1.55806 0.3371,2.76557 0.003,1.20751 -0.12926,2.69435 -0.50244,4.40368 -0.37318,1.70933 -0.98846,3.64216 -1.96318,5.69089 -1.30548,2.67582 -3.16002,5.44188 -5.38546,8.17988 -2.22544,2.738 -4.82364,5.44178 -7.26104,8.23081 -2.8143,3.23825 -5.58737,6.93127 -8.3352,11.01706 -2.74783,4.08579 -5.47274,8.56416 -8.28844,13.26636 -1.42764,2.38415 -2.83773,4.75174 -4.24665,7.07139 -3.9434,6.58496 -7.99155,12.84053 -12.16574,18.17048 -4.1742,5.32996 -8.46679,9.7292 -12.47478,13.0085 0,0 -1e-5,0 -1e-5,10e-6 -4.17554,3.39361 -7.93849,5.53812 -10.66304,6.7229 -2.72454,1.18478 -4.40991,1.43329 -4.74416,0.87949 -0.33425,-0.5538 0.70139,-1.85901 2.6672,-3.89972 1.96581,-2.0407 4.85948,-4.83989 8.08403,-8.55172 0,0 0,0 0,0 3.11851,-3.56345 6.49702,-8.00912 9.94841,-13.31095 3.45138,-5.30183 6.97998,-11.46661 10.80692,-18.05646 1.34057,-2.34217 2.72872,-4.74583 4.18544,-7.18169 2.87304,-4.8042 5.85264,-9.44187 8.99522,-13.6955 3.14258,-4.25364 6.44857,-8.1209 9.85304,-11.46533 2.93003,-2.89249 5.74311,-5.22274 8.10021,-7.38506 2.3571,-2.16231 4.26464,-4.15665 5.71249,-6.10411 2.23353,-2.92642 3.55149,-5.71237 4.49219,-7.67137 0.94071,-1.959 1.54498,-3.1214 2.11262,-3.06907 z"
       id="path4122"
       inkscape:path-effect="#path-effect4124;#path-effect4126"
       inkscape:original-d="m 186.16894,573.77572 c -1.33302,4.09743 -2.38151,8.29955 -3.99903,12.29227 -2.30735,5.69556 -9.34878,10.40204 -13.2296,14.94993 -16.02759,18.78252 -33.65303,41.02965 -44.64992,63.12186 -4.10077,8.23825 -3.50554,12.39766 -13.07922,10.02692"
       inkscape:connector-curvature="0" />
    <path
       style="fill:#6e6259;fill-rule:evenodd;stroke:none;fill-opacity:1"
       d="m 361.07039,573.77572 c 0.31767,-0.0255 0.66085,0.41093 1.05042,1.2463 0.38956,0.83538 0.82698,2.07019 1.37446,3.63792 1.09497,3.13547 2.63036,7.6292 5.29188,12.75084 0,0 0,0 0,0 1.3303,2.5877 2.95159,5.31771 4.92251,8.09962 1.97093,2.78191 4.29227,5.61567 6.97809,8.41647 2.68581,2.80079 5.7363,5.56862 9.11359,8.22467 3.3773,2.65605 7.08104,5.20032 11.02268,7.5601 2.45592,1.46319 5.01306,2.8563 7.66024,4.18325 6.20311,3.10944 12.50283,5.66443 18.61399,7.90347 6.11117,2.23904 12.03088,4.16455 17.50721,5.92986 2.17902,0.63942 4.47022,1.39424 6.65899,2.40848 2.18877,1.01424 4.275,2.28733 6.11252,3.87188 1.91508,1.74844 2.94338,3.26773 3.94047,4.09084 0.53951,0.44467 1.00656,0.79714 1.42569,0.94822 0.42878,0.15109 0.84634,0.26182 1.10532,0.20761 0.31801,-3e-5 0.74719,-0.27805 0.96161,-0.58002 0.27192,-0.34488 0.35379,-0.96214 0.24236,-1.42816 -0.12483,-0.6053 -0.64602,-1.17877 -1.16531,-1.47865 0,0 0,0 0,0 -0.30114,-0.18057 -0.63997,-0.28762 -0.95744,-0.35323 -0.31746,-0.0656 -0.61546,-0.0898 -0.8741,-0.10568 -0.51728,-0.0317 -0.88837,-0.0391 -1.04149,-0.24056 -0.15312,-0.20148 -0.0839,-0.61496 0.42302,-1.1142 0.25345,-0.24962 0.61936,-0.51337 1.11967,-0.71891 0.5003,-0.20553 1.13676,-0.35343 1.89961,-0.3218 0,0 0,0 0,0 0.65413,0.0323 1.37513,0.19681 2.09204,0.55786 0.71691,0.36105 1.43058,0.91931 2.01649,1.73025 0.9039,1.27798 1.40467,3.05837 0.91423,5.01779 -0.43935,1.67414 -1.56575,3.26238 -3.42205,4.19337 -1.46836,0.68542 -3.11005,0.91929 -4.67909,0.61431 -1.42844,-0.27069 -2.75327,-0.8168 -3.87336,-1.54834 -2.03033,-1.32247 -3.53984,-2.89625 -4.82049,-3.78592 -1.16218,-0.89173 -2.63509,-1.54584 -4.38657,-2.09919 -1.75149,-0.55334 -3.78211,-1.00585 -5.99372,-1.58707 -5.69728,-1.34106 -11.89368,-2.97344 -18.36428,-5.09509 -6.4706,-2.12165 -13.21454,-4.73642 -19.92484,-8.09834 -2.86362,-1.4347 -5.64187,-2.96717 -8.31682,-4.5961 -4.3304,-2.62535 -8.36251,-5.55081 -11.99141,-8.66245 -3.62889,-3.11164 -6.85424,-6.40881 -9.62938,-9.76417 -2.77513,-3.35535 -5.10029,-6.76826 -6.98777,-10.10754 -1.88748,-3.33928 -3.33811,-6.60435 -4.41509,-9.66939 0,0 0,0 0,-10e-6 -1.0558,-3.04327 -1.73403,-5.8623 -2.15317,-8.35031 -0.41914,-2.48802 -0.58043,-4.6457 -0.59148,-6.40519 -0.0111,-1.75949 0.12688,-3.12161 0.33571,-4.04591 0.20882,-0.92429 0.48739,-1.41141 0.80506,-1.43688 z"
       id="path4128"
       inkscape:path-effect="#path-effect4130;#path-effect4132"
       inkscape:original-d="m 361.07039,573.77572 c -3.09182,8.81921 -1.39418,12.85508 4.66032,18.93668 21.40737,21.50317 50.34089,40.46036 77.72395,53.15526 3.81168,1.76711 7.76422,3.2162 11.5759,4.98331 3.35745,1.55652 6.37696,6.03914 9.92221,4.98331 2.49347,-0.74261 -2.62579,-4.51022 -3.93869,-6.76533"
       inkscape:connector-curvature="0" />
    <path
       style="fill:#6e6259;fill-rule:evenodd;stroke:none;fill-opacity:1"
       d="m 186.16894,523.58023 c 0.003,0.28125 -0.38818,0.57125 -1.18072,0.80923 -0.79254,0.23798 -1.98921,0.42175 -3.55749,0.39245 -1.56827,-0.0293 -3.51209,-0.27467 -5.70656,-0.95388 -2.19446,-0.67922 -4.6432,-1.79556 -7.07123,-3.57841 -1e-5,-1e-5 -1e-5,-1e-5 -1e-5,-1e-5 -2.84289,-2.14526 -5.54189,-5.10328 -7.73456,-8.80434 -2.19267,-3.70107 -3.87387,-8.14924 -4.79414,-12.91453 -0.75725,-3.73074 -1.17771,-7.62658 -1.4248,-11.59096 -0.24709,-3.96438 -0.32141,-7.99658 -0.51585,-11.99625 -0.35925,-6.62823 -1.05793,-13.50077 -2.73801,-20.18928 -0.47619,-1.89576 -1.02448,-3.74417 -1.65248,-5.53894 -1.49272,-4.23917 -3.40082,-8.22199 -5.66891,-11.72781 -2.26808,-3.50583 -4.89647,-6.53361 -7.80947,-8.96763 0,0 0,0 -1e-5,-1e-5 -2.28133,-1.90638 -4.9767,-3.685 -7.57553,-5.69765 -2.59883,-2.01265 -5.10029,-4.25852 -7.16894,-6.89788 -2.43483,-3.13718 -3.83667,-6.93666 -3.97496,-10.65245 -0.0541,-2.10177 0.36989,-4.12466 1.15547,-5.90747 0.88336,-2.00221 2.25615,-3.61206 3.82151,-4.74459 1.40949,-1.00248 2.90667,-1.55864 4.31527,-1.79839 1.4086,-0.23975 2.73014,-0.16386 3.87851,0.0988 0,0 0,0 0,0 1.31663,0.30792 2.36514,0.8472 3.16769,1.42246 0.80256,0.57526 1.36192,1.18781 1.73752,1.72607 0.3756,0.53826 0.56965,1.00352 0.64138,1.34824 0.0717,0.34471 0.0224,0.56993 -0.11553,0.67451 -0.27589,0.20917 -0.87306,-0.0879 -1.84276,-0.4895 -0.48486,-0.20079 -1.06966,-0.42354 -1.75216,-0.58875 -0.68251,-0.1652 -1.46566,-0.27379 -2.28853,-0.21548 0,0 0,0 0,0 -0.71661,0.0451 -1.48772,0.21716 -2.24107,0.54416 -0.75336,0.32701 -1.49053,0.80949 -2.06404,1.443 -0.67018,0.71181 -1.19875,1.68847 -1.4878,2.77186 -0.26215,0.97463 -0.30129,2.09549 -0.12709,3.23647 0.26644,2.03318 1.49943,4.18517 3.24888,6.18373 1.50643,1.74865 3.5793,3.25394 6.06101,4.84352 2.48172,1.58958 5.37314,3.26425 8.32914,5.54185 0,0 0,0 0,0 3.78941,2.92039 7.22141,6.53422 10.13142,10.69465 2.91001,4.16043 5.29722,8.86627 7.04064,13.85924 0.73589,2.09619 1.37407,4.23399 1.92037,6.40323 1.92744,7.65341 2.60723,15.22437 2.72754,22.28532 0.0946,4.25242 0.003,8.26049 0.0301,12.00847 0.0271,3.74799 0.17372,7.23647 0.61756,10.47364 0.59934,4.05047 1.58632,7.81202 2.95409,10.96124 1.36776,3.14922 3.11518,5.69166 5.08068,7.62787 0,0 0,0 0,0 1.6188,1.65218 3.37393,2.90015 5.0154,3.84903 1.64146,0.94887 3.17304,1.6013 4.45777,2.09275 1.28474,0.49144 2.32632,0.82525 3.04391,1.12177 0.7176,0.29651 1.11353,0.5594 1.11677,0.84065 z"
       id="path4134"
       inkscape:path-effect="#path-effect4136;#path-effect4138"
       inkscape:original-d="m 186.16894,523.58023 c -5.19164,-1.87246 -10.8711,-2.72316 -15.57493,-5.61741 -2.55555,-1.57243 -10.46213,-39.08655 -11.5759,-43.18865 -4.62693,-17.04131 -12.01125,-34.09662 -19.84442,-49.83305 -0.91545,-1.8391 -14.97346,-28.14895 -14.8833,-28.23874 2.83754,-2.82559 7.9378,0.92609 11.9067,1.38913"
       inkscape:connector-curvature="0" />
    <path
       style="fill:#6e6259;fill-rule:evenodd;stroke:none;fill-opacity:1"
       d="m 211.15486,523.58023 c -0.3427,-0.21712 -0.17865,-1.16468 0.258,-2.77237 0.43665,-1.60768 1.14174,-3.89136 1.67176,-6.81929 0.50027,-2.66858 0.7907,-5.89184 0.9307,-9.74448 0.07,-1.92632 0.11139,-4.01006 0.199,-6.25598 0.0876,-2.24591 0.22105,-4.65426 0.53073,-7.22189 0.51892,-4.24203 1.51519,-8.70337 3.00184,-13.2569 1.48664,-4.55354 3.46403,-9.19857 5.83607,-13.80297 4.08844,-7.97118 9.27129,-15.89036 14.64403,-23.86705 0.68229,-1.01705 1.36647,-2.037 2.05004,-3.06052 4.53818,-6.79512 8.74288,-13.33997 12.10394,-19.80707 2.15267,-4.1619 3.98638,-8.28987 5.39648,-12.31705 1.41011,-4.02718 2.39647,-7.9538 2.94485,-11.72593 0,-10e-6 0,-10e-6 0,-10e-6 0.36498,-2.60816 0.59053,-5.36908 1.01491,-8.09892 0.42438,-2.72983 1.04646,-5.42821 2.02621,-7.95705 1.19225,-3.03339 3.07358,-5.65842 5.32613,-7.55377 1.39372,-1.17606 2.9436,-1.99913 4.48131,-2.49725 1.53772,-0.49812 3.06392,-0.67233 4.47351,-0.59231 2.33566,0.16239 4.17624,1.03663 5.45942,2.00907 0,0 1e-5,0 1e-5,0 1.48671,1.12927 2.22651,2.35409 2.56323,3.22076 0.33672,0.86666 0.28829,1.39384 0.0456,1.53452 -0.2427,0.14068 -0.67532,-0.10019 -1.34382,-0.52058 -0.6685,-0.42039 -1.5994,-1.0297 -2.84178,-1.44042 0,0 0,0 0,0 -1.07068,-0.35582 -2.41139,-0.56434 -3.80225,-0.33489 -0.8389,0.12048 -1.71429,0.42405 -2.57672,0.91617 -0.86244,0.49212 -1.71275,1.1737 -2.45915,1.99346 -1.24067,1.3623 -2.178,3.28757 -2.82538,5.53124 -0.56096,1.89076 -0.79963,4.04244 -0.91597,6.48642 -0.11634,2.44397 -0.10949,5.18106 -0.35993,8.20646 0,0 0,0 0,0 -0.34383,4.39525 -1.1912,8.96514 -2.53771,13.58709 -1.34651,4.62194 -3.19214,9.29531 -5.43752,13.88878 -3.46318,7.11815 -7.78934,14.11416 -12.41728,21.03152 -0.69709,1.04193 -1.39404,2.07287 -2.08838,3.09364 -2.70339,3.99 -5.35272,7.84735 -7.82555,11.61984 -2.47282,3.77248 -4.76872,7.46055 -6.80737,11.09572 -2.34101,4.19259 -4.36146,8.31555 -5.96267,12.31025 -1.60121,3.99469 -2.78348,7.86146 -3.55351,11.54569 -0.47087,2.23228 -0.81004,4.46632 -1.13502,6.63845 -0.32498,2.17213 -0.63533,4.28229 -0.99413,6.28036 -0.7176,3.99615 -1.66223,7.53025 -2.82522,10.3697 -1.29298,3.10912 -2.76281,5.28696 -3.9162,6.63211 -1.15339,1.34514 -1.9895,1.87257 -2.3322,1.65545 z"
       id="path4140"
       inkscape:path-effect="#path-effect4142;#path-effect4144"
       inkscape:original-d="m 211.15486,523.58023 c 1.36303,-2.97986 3.16531,-5.79428 4.08908,-8.93961 2.1577,-7.34678 0.50524,-15.51501 3.3074,-23.25543 12.30632,-33.99383 29.21279,-66.12283 46.30362,-98.00501 1.24874,-2.32946 10.42944,-24.39424 13.22961,-24.91653 3.01778,-0.56288 5.35204,3.02009 8.02805,4.53012"
       inkscape:connector-curvature="0" />
    <path
       style="fill:#6e6259;fill-rule:evenodd;stroke:none;fill-opacity:1"
       d="m 286.11262,523.58023 c -0.0109,0.14387 -0.17773,0.29085 -0.54706,0.34175 -0.36933,0.0509 -0.95844,0.004 -1.61762,-0.43182 -0.55521,-0.3703 -1.136,-1.01907 -1.37618,-2.01086 -0.18234,-0.76974 -0.13994,-1.69728 0.32931,-2.60942 0,0 0,-10e-6 10e-6,-10e-6 0.40334,-0.77312 1.0868,-1.47347 2.05914,-1.87811 0.8652,-0.35373 1.88371,-0.44268 2.91918,-0.12044 0.94045,0.29954 1.80732,0.91219 2.41498,1.84792 0.55622,0.86977 0.83594,1.93051 0.70398,3.06883 -0.13129,1.06483 -0.6094,2.08824 -1.4567,2.90203 -0.94089,0.88595 -2.19891,1.40645 -3.61605,1.35782 -1.2943,-0.0738 -2.50966,-0.5747 -3.448,-1.48546 -0.87698,-0.85959 -1.47935,-1.93662 -1.71457,-3.12649 -0.22112,-1.12715 -0.17322,-2.26906 0.14633,-3.3328 0.30403,-1.01513 0.78172,-1.9416 1.39643,-2.73264 1.18254,-1.47338 2.60494,-2.5616 3.97368,-3.31978 1.25876,-0.74743 2.41579,-1.30884 3.23761,-1.91865 1.4893,-1.03917 2.76375,-2.65111 3.72817,-4.54901 0.89437,-1.76874 1.45159,-3.8714 1.78885,-6.1631 0.31626,-2.10059 0.36995,-4.37362 0.33271,-6.83479 -0.0372,-2.46117 -0.16545,-5.11061 -0.14341,-7.95639 0,0 0,0 0,-10e-6 0.0858,-9.16694 1.70462,-18.80883 4.63104,-28.56438 2.92641,-9.75556 7.15305,-19.62115 11.8792,-29.28882 0.2458,-0.51106 0.4929,-1.02222 0.74114,-1.53351 4.52754,-9.32506 9.15056,-18.16507 13.09316,-26.67105 3.94259,-8.50598 7.19847,-16.68243 9.4114,-24.57892 0,0 0,0 0,0 1.31245,-4.63792 2.3376,-9.31812 3.48365,-13.82653 1.14605,-4.5084 2.41216,-8.84453 3.98843,-12.85577 0.56288,-1.43576 1.09978,-2.63117 1.41897,-3.69646 0.31159,-1.11617 0.52296,-2.08848 0.42581,-2.86881 -0.0534,-0.7271 -0.31071,-1.46453 -0.70137,-2.06879 -0.4128,-0.64467 -1.015,-1.19201 -1.67255,-1.55296 -0.70617,-0.39122 -1.53206,-0.59382 -2.31503,-0.60043 -0.8565,-0.0102 -1.71931,0.21592 -2.44384,0.59588 -0.81375,0.42373 -1.49999,1.06659 -1.98266,1.77177 0,0 -1e-5,0 -1e-5,0 -0.56678,0.82385 -0.88251,1.77197 -0.98969,2.65386 -0.13948,1.13039 0.0525,2.19302 0.3458,3.04212 0.34245,0.99536 0.82374,1.73356 1.15111,2.26211 0.32738,0.52856 0.50781,0.86617 0.3965,1.04792 -0.11131,0.18175 -0.51762,0.20589 -1.18609,-0.0679 -0.66847,-0.27377 -1.61317,-0.85747 -2.50444,-2.01299 -0.75985,-0.98688 -1.46387,-2.39346 -1.66291,-4.20113 -0.15366,-1.41036 0.0124,-3.03489 0.72378,-4.66487 0,0 10e-6,0 10e-6,-1e-5 0.60996,-1.39238 1.60641,-2.75073 3.03266,-3.82699 1.27352,-0.95803 2.85316,-1.66168 4.64299,-1.90946 1.63692,-0.22391 3.39769,-0.0581 5.10476,0.60227 1.58554,0.6165 3.07055,1.64015 4.25999,3.06274 1.11594,1.33961 1.93027,2.98436 2.28857,4.82761 0.34198,1.96099 0.23144,3.88947 -0.17845,5.61685 -0.3662,1.63605 -0.86814,3.11 -1.28415,4.42887 -1.15928,3.68677 -2.04836,7.75904 -2.89573,12.19011 -0.84737,4.43107 -1.65256,9.22181 -2.8618,14.28286 0,0 -1e-5,0 -1e-5,10e-6 -2.07701,8.6035 -5.25766,17.41679 -9.14302,26.32617 -3.88536,8.90939 -8.46769,17.91501 -12.9519,27.07628 -0.24587,0.50231 -0.4906,1.00356 -0.73404,1.50378 -4.54625,9.49833 -8.70408,18.82688 -11.67737,27.82872 -2.9733,9.00184 -4.75467,17.67921 -5.11537,25.89379 0,0 0,0 0,0 -0.11655,2.54951 -0.11971,5.19516 -0.24314,7.87221 -0.12343,2.67706 -0.36705,5.38541 -0.89476,8.06643 -0.58582,2.93814 -1.61527,5.79576 -3.11921,8.35781 -1.63037,2.78768 -3.91637,5.0999 -6.57357,6.67771 -1.49979,0.85543 -2.80687,1.36058 -3.83799,1.83493 -1.0647,0.54017 -1.91766,0.96078 -2.37442,1.48255 -0.24896,0.2601 -0.45101,0.51001 -0.55502,0.7399 -0.10494,0.23145 -0.18244,0.45903 -0.18133,0.62033 -0.003,0.15625 0.0124,0.33136 0.0478,0.40369 0.0198,0.068 0.0874,0.17981 0.0893,0.20422 -0.0127,0.0578 0.11858,0.079 0.17225,0.0896 0.062,0.0135 0.16667,-0.0638 0.22076,-0.12375 0.066,-0.0627 0.0959,-0.22216 0.0863,-0.33521 -0.004,-0.12603 -0.10637,-0.29555 -0.21869,-0.3955 -0.1208,-0.11654 -0.34829,-0.18903 -0.53979,-0.18902 -0.21776,-0.006 -0.48074,0.10503 -0.66137,0.25916 0,0 0,0 0,0 -0.21734,0.17808 -0.37154,0.48333 -0.42285,0.76746 -0.0712,0.36698 0.0259,0.77329 0.18004,1.07901 0.18025,0.36403 0.459,0.62961 0.66287,0.82806 0.20387,0.19845 0.34442,0.34398 0.33352,0.48785 z"
       id="path4146"
       inkscape:path-effect="#path-effect4148;#path-effect4150"
       inkscape:original-d="m 286.11262,523.58023 c 0.63139,-0.21137 1.68373,-1.26831 1.89415,-0.6341 0.21043,0.6342 -2.1046,1.26831 -1.89415,0.6341 1.24022,-3.73729 3.74721,-6.94213 5.20156,-10.60072 3.5658,-8.97016 5.02813,-19.12508 8.2685,-28.23873 13.02405,-36.63057 29.02273,-72.13433 39.68882,-109.63271 2.51146,-8.82945 4.11092,-17.7748 6.61481,-26.57764 0.77216,-2.71469 4.28293,-9.30365 1.65369,-8.3055 -4.29289,1.62972 -7.63702,5.11406 -11.45553,7.6711"
       inkscape:connector-curvature="0" />
    <path
       style="fill:#6e6259;fill-rule:evenodd;stroke:none;fill-opacity:1"
       d="m 336.08447,523.58023 c -0.18851,0.0197 -0.40581,-0.11649 -0.57253,-0.48118 -0.16672,-0.36469 -0.28523,-0.97086 -0.0642,-1.76546 0.1897,-0.67499 0.62885,-1.4667 1.49509,-2.09241 0,0 0,0 0,0 0.67579,-0.48459 1.57734,-0.83966 2.65393,-0.83666 0.91825,0.006 1.90684,0.27302 2.81006,0.91323 0.80157,0.57336 1.48085,1.4025 1.86894,2.47554 0.34974,0.98099 0.43244,2.09224 0.13455,3.2284 -0.28144,1.05283 -0.86691,2.04556 -1.77938,2.83494 -0.86019,0.7367 -1.93744,1.23584 -3.16618,1.37593 -1.50402,0.15864 -3.05064,-0.22411 -4.37357,-1.24135 -1.23521,-0.97213 -2.09646,-2.36825 -2.34365,-4.06154 -0.1911,-1.99132 0.31422,-3.85811 1.42506,-5.24902 1.00004,-1.28087 2.15709,-2.23338 3.2829,-2.85454 1.04842,-0.61527 1.98302,-1.05481 2.66999,-1.44837 0.63781,-0.40537 1.11438,-0.69468 1.23938,-0.95376 0.31678,-0.25997 0.48115,-1.10296 0.84407,-2.25997 0.26161,-1.15665 0.50175,-2.76217 1.19025,-4.77772 0.88253,-2.18615 2.06744,-4.10815 3.38163,-5.7876 1.31419,-1.67944 2.75744,-3.11623 4.10961,-4.35997 5.01158,-4.96143 10.22111,-10.39704 15.43519,-16.22102 6.59882,-7.37069 12.57884,-14.669 17.82631,-21.47338 5.24746,-6.80437 9.76548,-13.11196 13.5259,-18.46095 3.76041,-5.34899 6.7696,-9.73685 9.01413,-12.70137 2.24452,-2.96452 3.73369,-4.50245 4.35028,-4.19274 0.61659,0.30971 0.30112,2.44175 -0.91056,6.01199 -1.21167,3.57025 -3.32917,8.576 -6.40259,14.53812 -3.07343,5.96211 -7.11,12.87744 -12.11827,20.21438 -5.00828,7.33694 -10.99218,15.0913 -17.83489,22.73416 -5.4068,6.03904 -10.94167,11.55613 -16.35672,16.45475 -1.34357,1.30553 -2.61231,2.41541 -3.6217,3.45414 -1.0094,1.03873 -1.75938,2.00652 -2.11668,3.00931 -0.42722,0.85418 -0.71534,2.24157 -1.26783,3.91656 -0.49106,1.81337 -1.55135,3.84588 -3.31265,5.65677 -1.26693,1.12802 -2.49102,1.81502 -3.5534,2.23619 -1.0849,0.46784 -1.94599,0.7461 -2.56046,1.01928 -0.61737,0.3102 -1.07142,0.49455 -1.24189,0.68339 -0.12488,0.16068 -0.32681,0.24417 -0.32318,0.11249 -0.083,-0.1252 -0.14489,-0.0799 -0.2393,-0.0898 -0.11232,0.004 -0.0819,0.1011 -0.10386,0.16312 -0.006,0.0604 0.0725,0.10001 0.12615,0.12887 0.0608,0.0355 0.17329,-0.001 0.25119,-0.0411 0.0893,-0.0409 0.16944,-0.1738 0.20781,-0.29144 0.0471,-0.13027 0.0221,-0.3272 -0.0402,-0.48247 -0.0669,-0.17801 -0.24063,-0.35755 -0.42753,-0.46975 -0.21859,-0.13576 -0.52694,-0.1907 -0.80315,-0.1709 0,0 0,0 0,0 -0.35651,0.0221 -0.71936,0.19146 -0.99732,0.39405 -0.32877,0.23712 -0.56737,0.54662 -0.76321,0.78201 -0.19584,0.23539 -0.35903,0.40709 -0.54754,0.42683 z"
       id="path4152"
       inkscape:path-effect="#path-effect4154;#path-effect4156"
       inkscape:original-d="m 336.08447,523.58023 c 1.06234,0.89604 4.07907,1.621 3.18703,2.6881 -0.89204,1.06709 -3.80741,-1.44179 -3.18703,-2.6881 1.62547,-3.2655 5.98915,-4.34144 8.14813,-7.27852 1.76327,-2.39873 1.78014,-5.74866 3.3074,-8.30551 1.81598,-3.04016 4.65693,-5.35554 6.61481,-8.30551 9.80144,-14.76795 43.80054,-70.72507 56.88742,-76.50143"
       inkscape:connector-curvature="0" />
    <path
       style="fill:#6e6259;fill-rule:evenodd;stroke:none;fill-opacity:1"
       d="m 311.09855,573.77572 c 0.352,-0.59346 3.13601,0.24219 7.77417,2.52788 4.63817,2.28569 11.123,6.04778 18.61794,11.48374 7.49494,5.43595 15.99069,12.56427 24.51348,21.41574 8.52279,8.85148 17.0596,19.4326 24.66723,31.41875 4.88737,7.70026 9.09415,15.50142 12.61846,23.14495 3.52432,7.64352 6.36688,15.12814 8.60005,22.20237 0,0 0,10e-6 0,10e-6 0.97527,2.98505 1.78309,5.78643 2.69024,8.29081 0.90714,2.50438 1.91352,4.71225 3.17729,6.57797 0,10e-6 0,10e-6 0,10e-6 1.42713,2.14664 3.07379,3.91315 4.87885,5.07254 2.06514,1.32507 4.32859,2.01894 6.33094,1.97062 1.24913,-0.009 2.4583,-0.2841 3.53001,-0.706 1.0717,-0.4219 2.00742,-0.99099 2.78312,-1.61795 0.89096,-0.71496 1.59045,-1.519 2.14113,-2.27829 0.55068,-0.75928 0.95429,-1.47622 1.27318,-2.07892 0.63779,-1.2054 0.97523,-1.95365 1.33352,-1.93551 0.17915,0.009 0.3511,0.20888 0.48648,0.61182 0.13538,0.40293 0.23358,1.01049 0.21398,1.81348 -0.0196,0.80298 -0.15814,1.80363 -0.53429,2.94284 -0.37616,1.13921 -0.99141,2.41954 -1.98278,3.69568 -0.86855,1.11229 -2.01311,2.20098 -3.45716,3.11083 -1.44406,0.90984 -3.18919,1.64124 -5.19369,1.98108 -3.18903,0.50792 -6.82952,0.0283 -10.19079,-1.69479 -2.89142,-1.47873 -5.5511,-3.70762 -7.69146,-6.46711 0,0 -10e-6,-1e-5 -10e-6,-1e-5 -1.8374,-2.3991 -3.35438,-5.07208 -4.6447,-7.87196 -1.29032,-2.79987 -2.35349,-5.72651 -3.39195,-8.56505 0,0 0,0 -1e-5,0 -2.51258,-6.65019 -5.51731,-13.68478 -9.07574,-20.89457 -3.55843,-7.20978 -7.67095,-14.59395 -12.33823,-21.94476 -7.26503,-11.44219 -15.1899,-21.70397 -22.99337,-30.52474 -7.80348,-8.82078 -15.47682,-16.20495 -22.16873,-22.15771 -6.69192,-5.95275 -12.39568,-10.4905 -16.30459,-13.72846 -3.90891,-3.23795 -6.01457,-5.20183 -5.66257,-5.79529 z"
       id="path4158"
       inkscape:path-effect="#path-effect4160;#path-effect4162"
       inkscape:original-d="m 311.09855,573.77572 c 23.63723,43.17992 60.16127,77.34005 92.66728,113.61948 2.40956,2.68928 17.9597,24.22087 21.49812,23.25544 5.02848,-1.372 7.17614,-7.5908 10.76421,-11.3862"
       inkscape:connector-curvature="0" />
    <path
       style="fill:#6e6259;fill-rule:evenodd;stroke:none;fill-opacity:1"
       d="m 261.1267,573.77572 c 0.0451,0.24368 -0.26341,0.54439 -0.8789,0.91827 -0.61548,0.37389 -1.53834,0.82219 -2.71246,1.39898 -2.34825,1.15358 -5.73682,2.82262 -9.43723,5.61007 -2.60049,1.9366 -5.31908,4.44557 -8.01118,7.60606 -2.69211,3.16048 -5.35598,6.97896 -7.97917,11.27309 -1.99156,3.29894 -3.95279,6.91462 -6.02908,10.7692 -2.0763,3.85458 -4.26829,7.94828 -6.81766,12.13656 -2.62963,4.30375 -5.56781,8.56809 -8.70729,12.80196 -3.13947,4.23387 -6.47947,8.43752 -9.8743,12.65401 -0.46261,0.57458 -0.92383,1.14653 -1.3833,1.71603 -16.82057,20.88524 -32.04784,39.69911 -43.33437,53.1123 -11.28652,13.41319 -18.66952,21.39873 -19.76467,20.58994 -1.09515,-0.80879 4.30705,-10.27001 14.18653,-24.8132 9.87948,-14.54318 24.27405,-34.14099 41.11929,-55.1514 0.45912,-0.57364 0.91962,-1.14767 1.38108,-1.72225 3.38644,-4.2165 6.69552,-8.30653 9.79073,-12.33259 3.0952,-4.02605 5.976,-7.98875 8.55214,-11.92842 2.51126,-3.82531 4.81019,-7.72522 7.10075,-11.49966 2.29056,-3.77444 4.57285,-7.42276 6.94783,-10.80068 3.09033,-4.44241 6.43011,-8.3858 9.83402,-11.57986 3.40392,-3.19406 6.86743,-5.64419 10.12093,-7.38999 2.33359,-1.23805 4.52803,-2.09877 6.47431,-2.69466 1.94628,-0.5959 3.64536,-0.9281 5.03412,-1.09637 1.38877,-0.16828 2.46816,-0.17369 3.2065,-0.0867 0.73833,0.087 1.13625,0.2656 1.18138,0.50928 z"
       id="path4176"
       inkscape:path-effect="#path-effect4178;#path-effect4180"
       inkscape:original-d="m 261.1267,573.77572 c -4.82082,1.88262 -9.84088,3.31494 -14.46245,5.64787 -9.62747,4.85987 -25.86003,32.75085 -31.42031,41.52755 -5.84259,9.2223 -13.43453,17.72459 -19.84442,26.57763 -18.80418,25.97147 -34.71577,55.76787 -59.20243,76.83342"
       inkscape:connector-curvature="0" />
    <path
       style="fill:#6e6259;fill-rule:evenodd;stroke:none;fill-opacity:1"
       d="m 311.09855,573.77572 c -0.0346,0.37939 -0.95466,0.61571 -2.50719,1.07215 -0.77627,0.22822 -1.71183,0.52119 -2.7506,0.95809 -1.03877,0.43689 -2.18288,1.01877 -3.32357,1.82497 -1.00101,0.70525 -2.00764,1.59027 -2.92791,2.67158 -0.92027,1.0813 -1.75494,2.35985 -2.36882,3.80538 -0.58711,1.34182 -0.9804,2.85963 -1.14413,4.50183 -0.16374,1.64221 -0.0978,3.40938 0.21302,5.19552 0.53634,3.07237 1.93127,6.27063 3.95772,9.3797 0,0 0,0 0,0 1.74554,2.71313 4.04543,5.28666 6.74542,7.88266 2.7,2.59601 5.80028,5.21511 8.99783,8.11844 10e-6,0 10e-6,0 10e-6,0 8.77902,7.86498 17.57377,17.08445 26.27032,27.0226 3.51721,4.01935 6.90308,8.0111 10.17633,11.91764 6.45158,7.68781 12.49266,15.05118 18.18732,21.77463 5.69466,6.72345 11.04474,12.80749 15.9562,18.10133 0,0 0,0 0,0 7.40764,7.99055 13.79709,14.23638 18.17841,18.67259 4.38133,4.4362 6.74202,7.08934 6.28332,7.68736 -0.4587,0.59802 -3.69683,-0.92433 -8.96461,-4.42947 -5.26778,-3.50514 -12.55337,-9.02068 -20.81525,-16.56691 0,0 0,0 -10e-6,-10e-6 -5.47335,-5.00299 -11.33674,-10.88447 -17.42367,-17.44815 -6.08693,-6.56367 -12.3969,-13.80767 -18.93311,-21.38252 -3.32214,-3.84407 -6.70899,-7.77611 -10.17497,-11.73848 -8.56989,-9.79726 -16.92375,-18.89934 -25.09636,-26.75823 0,0 0,-10e-6 0,-10e-6 -3.02003,-2.86393 -6.12801,-5.75098 -8.95096,-8.8219 -2.82295,-3.07093 -5.36031,-6.32532 -7.38094,-9.81478 0,0 0,0 0,-1e-5 -2.32343,-4.05485 -3.74476,-8.44009 -4.13241,-12.69922 -0.2302,-2.50639 -0.0508,-4.94939 0.45468,-7.20148 0.50548,-2.25209 1.33667,-4.31378 2.39808,-6.11733 1.156,-1.93141 2.55815,-3.49886 4.01957,-4.73171 1.46141,-1.23285 2.98272,-2.13222 4.43735,-2.76382 1.66006,-0.71854 3.21523,-1.08496 4.56507,-1.2486 1.34984,-0.16363 2.49655,-0.12536 3.40579,-0.004 0.90923,0.1209 1.5829,0.32374 2.02162,0.53135 0.43872,0.20761 0.64376,0.41956 0.62645,0.60926 z"
       id="path4182"
       inkscape:path-effect="#path-effect4184;#path-effect4186"
       inkscape:original-d="m 311.09855,573.77572 c -5.49232,2.99002 -11.22081,5.57872 -16.47697,8.97007 -3.89242,2.51143 16.01032,36.58122 18.19071,39.86644 19.48241,29.35441 45.04139,54.79676 71.10914,78.07179 9.41844,8.40943 16.22889,17.08449 27.1208,23.67817"
       inkscape:connector-curvature="0" />
    <path
       style="fill:#6e6259;fill-rule:evenodd;stroke:none;fill-opacity:1"
       d="m 336.08447,548.67798 c -0.16289,0.0894 -0.55368,-0.25789 -1.1928,-0.97925 -0.63912,-0.72135 -1.52912,-1.81739 -2.75214,-3.17694 -1.22302,-1.35954 -2.78232,-2.98421 -4.77779,-4.69701 -1.99547,-1.7128 -4.43062,-3.5159 -7.37197,-5.13781 -2.84258,-1.58399 -6.16516,-2.97308 -9.96845,-4.14652 -3.80329,-1.17344 -8.09051,-2.12648 -12.74037,-3.05576 -6.5988,-1.26926 -13.88717,-2.51314 -21.64962,-3.07476 -7.76245,-0.56161 -15.99987,-0.44523 -24.35308,1.46908 -7.00955,1.58112 -14.09738,4.3618 -20.20317,8.8655 -5.64979,4.16848 -10.57219,9.83027 -13.28754,16.55007 -2.62082,6.25535 -3.28175,13.6218 -2.76852,21.16589 0.63455,8.53701 2.96215,17.20768 6.91695,25.29352 3.9548,8.08583 9.53592,15.58454 16.5714,21.61934 4.32552,3.72515 9.2211,6.9035 14.50102,9.42173 11.15543,5.32051 23.5608,7.47036 35.22871,6.18692 9.25809,-0.99682 18.12118,-4.15035 25.81546,-8.75594 7.69428,-4.60559 14.21759,-10.66187 19.05183,-17.55912 5.57875,-7.91753 8.96305,-16.97891 10.37665,-25.89489 1.4136,-8.91597 0.85728,-17.68646 -1.29581,-25.52029 -1.36945,-5.00797 -3.34822,-9.66433 -5.72842,-13.85048 -2.3802,-4.18616 -5.16191,-7.9027 -8.16679,-11.10593 -3.82457,-4.08002 -8.01326,-7.34189 -12.17792,-9.87089 -4.16466,-2.52899 -8.3075,-4.3277 -12.18013,-5.57225 -2.32201,-0.74694 -4.67821,-1.35891 -6.86817,-2.15881 -2.60531,-0.93564 -4.94357,-2.21451 -6.74198,-3.77512 -1.75113,-1.54478 -2.87221,-3.27737 -3.58362,-4.85373 -0.71142,-1.57636 -1.01705,-3.00393 -1.12871,-4.14991 -0.11166,-1.14598 -0.0323,-2.01635 0.0867,-2.58812 0.11906,-0.57177 0.27618,-0.8486 0.4164,-0.84401 0.14022,0.005 0.26178,0.28967 0.41575,0.81759 0.15398,0.52793 0.34359,1.30165 0.69076,2.26429 0.34718,0.96263 0.85601,2.11963 1.66405,3.33105 0.80805,1.21142 1.91989,2.48437 3.42336,3.50094 1.54628,1.07164 3.572,1.86714 5.95595,2.51126 2.0186,0.53266 4.32039,0.9143 6.8931,1.52143 4.29728,1.01557 8.9514,2.65561 13.69034,5.14611 4.73894,2.4905 9.56472,5.83431 14.04917,10.17755 3.51873,3.41006 6.81356,7.41848 9.67206,11.9959 2.85849,4.57742 5.28059,9.72446 7.02023,15.33597 2.72445,8.82596 3.67731,18.74227 2.33692,28.90615 -1.34039,10.16389 -4.97649,20.57488 -11.26637,29.8812 -5.47886,8.06918 -12.85118,15.15662 -21.61789,20.55816 -8.76671,5.40154 -18.92601,9.11506 -29.70451,10.3618 -13.57017,1.54254 -27.81476,-0.84268 -40.63728,-6.96575 -6.06896,-2.89808 -11.70124,-6.57521 -16.70658,-10.9055 -8.10394,-7.03526 -14.44909,-15.64053 -18.88501,-24.89405 -4.43592,-9.25352 -6.96225,-19.15274 -7.56001,-28.9287 -0.57424,-8.61649 0.48448,-17.41994 3.84628,-25.34495 3.68763,-8.45694 9.77939,-15.22413 16.69487,-20.00824 7.43839,-5.14635 15.64973,-8.13398 23.5953,-9.62665 9.45325,-1.74552 18.39054,-1.58044 26.59021,-0.67014 8.19967,0.9103 15.66405,2.56968 22.30369,4.28184 4.69359,1.17495 9.14117,2.4781 13.12066,4.03861 3.97949,1.5605 7.49379,3.37341 10.47416,5.37015 3.07592,2.07832 5.50906,4.31013 7.41634,6.4031 1.90729,2.09298 3.29214,4.0494 4.29127,5.69256 0.99913,1.64315 1.61552,2.97494 1.95719,3.90249 0.34167,0.92755 0.41073,1.45195 0.24784,1.54132 z"
       id="path4188"
       inkscape:path-effect="#path-effect4190;#path-effect4192"
       inkscape:original-d="m 336.08447,548.67798 c -5.00122,-5.25508 -9.74973,-10.76515 -15.00367,-15.76524 -5.65152,-5.37846 -16.11566,-7.29585 -23.15182,-8.30552 -30.91958,-4.43684 -64.26112,-3.31795 -84.33874,24.91654 -4.94174,6.9494 -6.80012,15.06926 -3.3074,23.25542 15.16625,35.54631 130.11603,21.97293 135.60347,-16.61102 3.03639,-21.34985 -25.81651,-35.28933 -41.34253,-41.52754 -4.37288,-1.75698 -9.68124,-1.87254 -13.2296,-4.98331 -3.0842,-2.70384 -3.46771,-7.44988 -5.20156,-11.17482"
       inkscape:connector-curvature="0" />
    <g
       id="g4194"
       transform="translate(-57.77531,23.50062)">
      <path
         inkscape:connector-curvature="0"
         id="path3921-8"
         d="m 325.81234,221.63936 c -54.03125,0 -97.86705,21.14721 -98.26673,47.31838 -0.002,0.12016 0,0.24014 0,0.36052 l 0,300.22382 0.75037,0 c 2.66249,25.18303 45.61021,45.21534 98.17293,45.21534 54.27933,0 98.26673,-21.34165 98.26673,-47.6789 0,-1.83115 -0.21122,-3.66041 -0.62531,-5.43786 l 0,-292.3224 c 0,-0.12038 0.002,-0.24036 0,-0.36052 -0.39967,-26.17117 -44.26674,-47.31838 -98.29799,-47.31838 z"
         style="fill:#8e533b;fill-opacity:1;stroke:#72492e;stroke-width:4.9037199;stroke-miterlimit:0;stroke-opacity:1;stroke-dasharray:none" />
      <path
         sodipodi:nodetypes="sccscccssscccsccs"
         inkscape:connector-curvature="0"
         id="path3007"
         d="m 325.77531,444.86156 c -9.23978,0 -19.5884,2.50586 -37.86906,8.38844 l -24.9375,177.71875 c -2.0195,2.73756 -3.125,5.65783 -3.125,8.6875 0,1.80967 0.41184,3.56588 1.15625,5.28125 l -33.40625,238.1875 0.34375,0 c -0.23481,1.31681 -0.34375,2.65432 -0.34375,4 0,25.78351 43.96592,46.6875 98.21875,46.6875 54.25283,0 98.25,-20.90399 98.25,-46.6875 0,-1.34568 -0.10894,-2.68319 -0.34375,-4 l 0.34375,0 -34.59375,-238.96875 c 0.54309,-1.46369 0.84375,-2.9699 0.84375,-4.5 0,-2.78841 -0.93307,-5.48554 -2.65625,-8.03125 L 361.8125,453.25 c -18.67846,-5.88258 -26.79741,-8.38844 -36.03719,-8.38844 z"
         style="fill:#a06851;fill-opacity:1;stroke:#72492e;stroke-width:3;stroke-linecap:butt;stroke-linejoin:round;stroke-miterlimit:4;stroke-opacity:1;stroke-dasharray:none" />
      <path
         d="m 424.05723,887.0188 c 0,25.78351 -43.98061,46.68517 -98.23344,46.68517 -54.25283,0 -98.23344,-20.90166 -98.23344,-46.68517 0,-25.78351 43.98061,-46.68517 98.23344,-46.68517 54.25283,0 98.23344,20.90166 98.23344,46.68517 z"
         sodipodi:ry="46.685169"
         sodipodi:rx="98.233437"
         sodipodi:cy="887.0188"
         sodipodi:cx="325.82379"
         id="path3009"
         style="fill:#bfa03c;fill-opacity:1;stroke:#72492e;stroke-width:2;stroke-linejoin:round;stroke-miterlimit:0;stroke-opacity:1;stroke-dasharray:none;stroke-dashoffset:0"
         sodipodi:type="arc" />
      <path
         inkscape:connector-curvature="0"
         id="path3023"
         d="m 325.0625,611.15625 c -36.02362,0 -65.21875,12.70687 -65.21875,28.38314 0,2.06289 0.50836,4.07327 1.46875,6.01117 6.54485,-12.66783 32.50729,-22.13676 63.59375,-22.13676 31.30757,0 57.46942,9.5946 63.78125,22.39811 1.04688,-2.01869 1.625,-4.11615 1.625,-6.27252 0,-15.67627 -29.22638,-28.38314 -65.25,-28.38314 z"
         clip-path="none"
         style="fill:#bfa03c;fill-opacity:1;stroke:#72492e;stroke-width:2;stroke-linejoin:round;stroke-miterlimit:0;stroke-opacity:1;stroke-dasharray:none;stroke-dashoffset:0" />
      <path
         transform="matrix(1.0030389,0,0,0.77163832,-0.98649069,92.369857)"
         d="m 424.05723,216.89165 c 0,27.39499 -43.98061,49.60302 -98.23344,49.60302 -54.25283,0 -98.23344,-22.20803 -98.23344,-49.60302 0,-27.395 43.98061,-49.60303 98.23344,-49.60303 54.25283,0 98.23344,22.20803 98.23344,49.60303 z"
         sodipodi:ry="49.603024"
         sodipodi:rx="98.233437"
         sodipodi:cy="216.89165"
         sodipodi:cx="325.82379"
         id="path3921"
         style="fill:#a08751;fill-opacity:1;stroke:#72492e;stroke-width:5;stroke-miterlimit:4;stroke-opacity:1;stroke-dasharray:none"
         sodipodi:type="arc" />
    </g>
  </g>
</svg>
